<svg xmlns="http://www.w3.org/2000/svg" viewBox="0 0 495.13 515.62">
  <defs>
    <style>
      .cls-1 {
        isolation: isolate;
      }

      .cls-2 {
        opacity: 0.1;
      }

      .cls-12, .cls-2 {
        mix-blend-mode: multiply;
      }

      .cls-12, .cls-3, .cls-9 {
        fill: #2988d7;
      }

      .cls-4 {
        fill: #083a66;
      }

      .cls-19, .cls-5 {
        fill: #205fa3;
      }

      .cls-16, .cls-6 {
        fill: #fff;
      }

      .cls-11, .cls-12, .cls-14, .cls-15, .cls-19, .cls-6, .cls-7, .cls-8, .cls-9 {
        fill-rule: evenodd;
      }

      .cls-7 {
        fill: #e6e0de;
      }

      .cls-8 {
        fill: #0a1432;
      }

      .cls-10 {
        opacity: 0.4;
      }

      .cls-11, .cls-13 {
        fill: #a5a5a5;
      }

      .cls-12 {
        opacity: 0.33;
      }

      .cls-14, .cls-24 {
        fill: #eaeaea;
      }

      .cls-15 {
        fill: #d1d4eb;
      }

      .cls-17 {
        fill: #f0f0f0;
      }

      .cls-18 {
        fill: #424242;
      }

      .cls-20 {
        fill: #acd5f3;
      }

      .cls-21 {
        fill: #326091;
      }

      .cls-22 {
        fill: #afc4d5;
      }

      .cls-23 {
        fill: #171a15;
      }

      .cls-25 {
        fill: #fcd2c5;
      }

      .cls-26 {
        fill: #eef5fd;
      }

      .cls-27 {
        fill: #194865;
      }

      .cls-28 {
        fill: #f9b253;
      }

      .cls-29 {
        fill: #f29127;
      }
    </style>
  </defs>
  <title>illu-header-commerce</title>
  <g class="cls-1">
    <g id="Calque_2" data-name="Calque 2">
      <g id="Calque_216" data-name="Calque 216">
        <g>
          <g class="cls-2">
            <path class="cls-3" d="M404.59,310.81c30.13-17.13,75.57-59.37,48.84-98.76-21.1-31.08-84.6-57.73-72-118.39C388,62,353.88,28.85,320,17.08c-23.66-8.22-48.76,7.57-87.18-10.26-16-7.43-16-9.6-30.34-2.41-16,8-32.7,1.63-40.31,23.63-7.11,20.57,2.09,15.77-1.7,56.9-3.19,34.67-46.64,1-65.56,25.61-23.15,30.08,26,63.37,10.89,95.89-19.53,42.08,2,76.61-4.16,101.78-9,36.5-3.13,77.68,3.19,114.43,7.56,44,169.87,179,282.87,10.86C424.7,378.47,340.53,347.22,404.59,310.81Z"/>
          </g>
          <rect class="cls-4" x="173.77" y="36.88" width="222.03" height="446.47" rx="27.75"/>
          <rect class="cls-5" x="178.18" y="41.3" width="213.21" height="437.64" rx="23.34"/>
          <path class="cls-6" d="M342.83,55v2A8.89,8.89,0,0,1,334,65.85H234.4A8.89,8.89,0,0,1,225.53,57V55A3.92,3.92,0,0,0,222,52.61h-21a12.11,12.11,0,0,0-12,12v391a12.1,12.1,0,0,0,12,12H367.44a12.1,12.1,0,0,0,12-12v-391a12.11,12.11,0,0,0-12-12h-21A3.92,3.92,0,0,0,342.83,55Z"/>
          <path class="cls-7" d="M272.24,56.29a1.75,1.75,0,0,1,0-3.5h32.42a1.75,1.75,0,0,1,0,3.5Zm-5.84-3.5a1.75,1.75,0,0,1,0,3.5h-1.49a1.75,1.75,0,0,1,0-3.5Z"/>
          <path class="cls-8" d="M204.52,439.34a7.22,7.22,0,0,0,0,10.22l0,0a7.23,7.23,0,0,0,9.56.5l3,3a.82.82,0,1,0,1.16-1.15l-3-3a7.28,7.28,0,0,0,1.57-4.51,7.23,7.23,0,0,0-12.34-5.1Zm9.08,9v0l0,0a5.6,5.6,0,0,1-7.86,0l0,0a5.6,5.6,0,0,1,0-7.91,5.59,5.59,0,0,1,9.55,3.95A5.56,5.56,0,0,1,213.6,448.38Z"/>
          <g>
            <path class="cls-9" d="M200.54,57.74a.59.59,0,1,1,0-1.17H213.3a.59.59,0,1,1,0,1.17Zm0,8.39a.59.59,0,0,1-.59-.59.58.58,0,0,1,.59-.58H213.3a.59.59,0,0,1,.59.58.6.6,0,0,1-.59.59Zm0-4.2a.58.58,0,1,1,0-1.16H213.3a.58.58,0,1,1,0,1.16Z"/>
            <path class="cls-9" d="M353.74,58.33h7.5v6h-7.5a.58.58,0,0,1-.42-.18.6.6,0,0,1-.18-.43V58.94a.61.61,0,0,1,.6-.61Zm14.1-1.16h-14.1A1.78,1.78,0,0,0,352,58.94v4.82a1.76,1.76,0,0,0,.52,1.25,1.78,1.78,0,0,0,1.25.52h14.1a1.78,1.78,0,0,0,1.22-.48l0,0a1.75,1.75,0,0,0,.51-1.25V58.94a1.72,1.72,0,0,0-.52-1.25A1.76,1.76,0,0,0,367.84,57.17Z"/>
          </g>
          <g>
            <path class="cls-9" d="M421.64,113.43a.63.63,0,0,0,1.26,0v-1.26a.63.63,0,0,0-1.07-.44.61.61,0,0,0-.19.44v1.26ZM449,84.78a.64.64,0,0,0,.45-1.08.63.63,0,0,0-.45-.18h-1.26a.63.63,0,0,0-.44,1.07.61.61,0,0,0,.44.19Zm-5,0a.64.64,0,0,0,.45-1.08.63.63,0,0,0-.45-.18H442.7a.63.63,0,0,0-.44,1.07.61.61,0,0,0,.44.19Zm-5,0a.64.64,0,0,0,.45-1.08.63.63,0,0,0-.45-.18h-1.26a.63.63,0,0,0-.45,1.07.65.65,0,0,0,.45.19Zm-5,0a.63.63,0,1,0,0-1.26h-1.26a.63.63,0,0,0,0,1.26Zm-4.73.62a.63.63,0,0,0-.34-1.2.23.23,0,0,0-.11,0,9.37,9.37,0,0,0-1.21.55.63.63,0,0,0,.59,1.11,8,8,0,0,1,1.07-.49Zm-3.84,2.67a.63.63,0,0,0-.77-1,.62.62,0,0,0-.18.14,12.27,12.27,0,0,0-.82,1.05.63.63,0,0,0,.86.89.77.77,0,0,0,.18-.18,9.33,9.33,0,0,1,.73-.93Zm-2.16,4.15a.63.63,0,0,0-1-.63.65.65,0,0,0-.21.33,12.16,12.16,0,0,0-.23,1.32.63.63,0,0,0,1.23.25.43.43,0,0,0,0-.11,9.1,9.1,0,0,1,.21-1.16Zm-.27,4.86a.63.63,0,0,0-1.26,0v1.26a.63.63,0,0,0,1.07.45.65.65,0,0,0,.19-.45V97.08Zm0,5a.63.63,0,0,0-1.07-.45.65.65,0,0,0-.19.45v1.26a.63.63,0,0,0,1.07.45.65.65,0,0,0,.19-.45v-1.26Zm0,5a.63.63,0,0,0-1.07-.44.61.61,0,0,0-.19.44v1.26a.63.63,0,0,0,1.26,0Z"/>
            <path class="cls-9" d="M422.9,113.43a.63.63,0,0,0-1.26,0v1.26a.63.63,0,0,0,1.26,0v-1.26Zm-27.35,28.66a.63.63,0,0,0-.45,1.07.65.65,0,0,0,.45.19h1.26a.64.64,0,0,0,.45-1.08.63.63,0,0,0-.45-.18Zm5,0a.63.63,0,0,0-.44,1.07.61.61,0,0,0,.44.19h1.26a.64.64,0,0,0,.45-1.08.63.63,0,0,0-.45-.18Zm5,0a.63.63,0,0,0-.44,1.07.61.61,0,0,0,.44.19h1.26a.64.64,0,0,0,.45-1.08.63.63,0,0,0-.45-.18Zm5,0a.63.63,0,0,0-.45,1.07.62.62,0,0,0,.45.19h1.25a.64.64,0,0,0,.45-1.08.63.63,0,0,0-.45-.18Zm4.72-.63a.63.63,0,0,0,.34,1.21l.11,0a12.07,12.07,0,0,0,1.21-.55.63.63,0,0,0-.28-1.19.61.61,0,0,0-.3.08,10.43,10.43,0,0,1-1.08.48Zm3.85-2.67a.63.63,0,0,0,.77,1,.55.55,0,0,0,.17-.13,11.45,11.45,0,0,0,.82-1,.63.63,0,0,0-.85-.89.61.61,0,0,0-.19.17,8.23,8.23,0,0,1-.72.93Zm2.16-4.14a.63.63,0,0,0,1,.63.58.58,0,0,0,.21-.34,11.75,11.75,0,0,0,.23-1.32.63.63,0,0,0-1.23-.25s0,.08,0,.12a9.38,9.38,0,0,1-.2,1.16Zm.26-4.87a.63.63,0,0,0,1.26,0v-1.26a.63.63,0,0,0-1.07-.44.61.61,0,0,0-.19.44v1.26Zm0-5a.63.63,0,0,0,1.26,0v-1.26a.63.63,0,0,0-1.07-.44.61.61,0,0,0-.19.44v1.26Zm0-5a.63.63,0,0,0,1.26,0v-1.26a.63.63,0,0,0-1.07-.44.61.61,0,0,0-.19.44Z"/>
          </g>
          <path class="cls-9" d="M310.45,444.15a5.31,5.31,0,0,0-7.52,0l0,0a5.32,5.32,0,0,0-1.53,3.72v3.86a.27.27,0,0,0,.08.19.28.28,0,0,0,.2.08h10.09a.26.26,0,0,0,.19-.08h0a.32.32,0,0,0,.07-.19v-3.86a5.3,5.3,0,0,0-1.56-3.76Zm-.53-11.36a4.57,4.57,0,1,0-6.46,6.46l0,.05a4.59,4.59,0,0,0,6.42,0h0a4.57,4.57,0,0,0,1.33-3.23A4.51,4.51,0,0,0,309.92,432.79Z"/>
          <path class="cls-8" d="M264.91,441.5l1.83-1.05-1.16-2-1.88,1.08a.8.8,0,0,1-1-.14,7.09,7.09,0,0,0-1.44-1.11,7,7,0,0,0-1.69-.7.8.8,0,0,1-.61-.78v-2.17h-2.32v2.17a.81.81,0,0,1-.66.8,6.84,6.84,0,0,0-3.09,1.8.82.82,0,0,1-1,.13L250,438.44l-1.16,2,1.87,1.08a.82.82,0,0,1,.38.92h0a7.17,7.17,0,0,0-.18.9,6.67,6.67,0,0,0-.06.92,6.77,6.77,0,0,0,.06.92,8,8,0,0,0,.18.9.81.81,0,0,1-.44,1l-1.81,1,1.16,2L251.9,449a.82.82,0,0,1,1,.15,7.37,7.37,0,0,0,1.44,1.11,6.82,6.82,0,0,0,1.7.69.82.82,0,0,1,.6.79v2.16H259v-2.16a.81.81,0,0,1,.66-.8,6.79,6.79,0,0,0,1.64-.69,6.54,6.54,0,0,0,1.45-1.12.84.84,0,0,1,1-.13l1.88,1.09,1.16-2L264.86,447a.82.82,0,0,1-.38-.92h0a8,8,0,0,0,.18-.9,6.77,6.77,0,0,0,.06-.92,6.67,6.67,0,0,0-.06-.92,7.17,7.17,0,0,0-.18-.9.82.82,0,0,1,.43-.95Zm-7.11-1.6a4.34,4.34,0,0,1,3,1.24l.05,0a4.36,4.36,0,0,1,0,6.17h0a4.36,4.36,0,1,1-3.08-7.45Z"/>
          <path class="cls-9" d="M346.28,436.4v15.46a11.57,11.57,0,0,1,1.7-1.55,7.16,7.16,0,0,1,4.26-1.52h13.33a1.16,1.16,0,0,0,1.15-1.15V436.4a1,1,0,0,0-.09-.44.94.94,0,0,0-.25-.37,1.12,1.12,0,0,0-.81-.34H347.43a1.19,1.19,0,0,0-.81.33,1.16,1.16,0,0,0-.34.82Zm13.31,3.08a.46.46,0,0,1,0,.91h-8.7a.46.46,0,1,1,0-.91Zm1.26.46a.46.46,0,0,1,.46-.46h.8a.46.46,0,1,1,0,.91h-.8a.46.46,0,0,1-.46-.45Zm-8.7,3.51a.46.46,0,0,1-.46.45h-.8a.46.46,0,0,1-.46-.45.47.47,0,0,1,.46-.46h.8a.47.47,0,0,1,.46.46Zm1.26-.46h7.4a.46.46,0,0,1,.45.46.45.45,0,0,1-.45.45h-7.4a.45.45,0,0,1-.45-.45A.46.46,0,0,1,353.41,443Z"/>
          <g class="cls-10">
            <path class="cls-11" d="M30.93,305.2a4.63,4.63,0,1,1,4.62,4.62A4.65,4.65,0,0,1,30.93,305.2Z"/>
            <path class="cls-11" d="M49.44,305.2a4.64,4.64,0,1,1,4.63,4.62A4.65,4.65,0,0,1,49.44,305.2Z"/>
            <path class="cls-11" d="M68,305.2a4.64,4.64,0,1,1,4.63,4.62A4.65,4.65,0,0,1,68,305.2Z"/>
            <path class="cls-12" d="M275.07,293.7V463.76a15.23,15.23,0,0,1-15.2,15.18H23.51A15.22,15.22,0,0,1,8.33,463.76V331.87H189.49V278.53h70.38A15.23,15.23,0,0,1,275.07,293.7Z"/>
            <path class="cls-11" d="M40.18,305.2a4.63,4.63,0,1,1-4.63-4.64A4.62,4.62,0,0,1,40.18,305.2Z"/>
            <path class="cls-11" d="M58.71,305.2a4.64,4.64,0,1,1-4.64-4.64A4.63,4.63,0,0,1,58.71,305.2Z"/>
            <path class="cls-11" d="M77.24,305.2a4.64,4.64,0,1,1-4.64-4.64A4.63,4.63,0,0,1,77.24,305.2Z"/>
            <g>
              <path class="cls-11" d="M40.18,305.2a4.63,4.63,0,1,1-4.63-4.64A4.62,4.62,0,0,1,40.18,305.2Z"/>
              <path class="cls-11" d="M58.71,305.2a4.64,4.64,0,1,1-4.64-4.64A4.63,4.63,0,0,1,58.71,305.2Z"/>
              <path class="cls-11" d="M77.24,305.2a4.64,4.64,0,1,1-4.64-4.64A4.63,4.63,0,0,1,77.24,305.2Z"/>
            </g>
            <g>
              <path class="cls-11" d="M111.5,381.06a1.4,1.4,0,1,1,0-2.8H254.13a1.4,1.4,0,0,1,0,2.8Z"/>
              <path class="cls-11" d="M111.5,398.47a1.4,1.4,0,1,1,0-2.8H254.13a1.4,1.4,0,1,1,0,2.8Z"/>
              <path class="cls-11" d="M111.5,415.88a1.4,1.4,0,0,1,0-2.8H254.13a1.4,1.4,0,0,1,0,2.8Z"/>
              <path class="cls-11" d="M111.5,433.29a1.4,1.4,0,0,1,0-2.8h95.77a1.4,1.4,0,0,1,0,2.8Z"/>
              <path class="cls-11" d="M111.5,363.64a1.4,1.4,0,1,1,0-2.79H254.13a1.4,1.4,0,1,1,0,2.79Z"/>
            </g>
            <rect class="cls-13" x="27.22" y="351.58" width="70.39" height="54.56" rx="5.74"/>
            <rect class="cls-13" x="27.22" y="416.52" width="70.39" height="24.82" rx="4.82"/>
          </g>
          <g>
            <path class="cls-14" d="M15.19,283.44H251.55a15.23,15.23,0,0,1,15.19,15.18V468.67a15.23,15.23,0,0,1-15.19,15.18H15.19A15.23,15.23,0,0,1,0,468.67v-170A15.23,15.23,0,0,1,15.19,283.44Z"/>
            <path class="cls-9" d="M15.19,283.44H251.55a15.23,15.23,0,0,1,15.19,15.18v38.16H0V298.62A15.23,15.23,0,0,1,15.19,283.44Z"/>
            <g>
              <path class="cls-6" d="M27.23,314.74a4.63,4.63,0,1,0-4.63-4.63A4.64,4.64,0,0,0,27.23,314.74Z"/>
              <path class="cls-6" d="M45.75,314.74a4.63,4.63,0,1,0-4.63-4.63A4.64,4.64,0,0,0,45.75,314.74Z"/>
              <path class="cls-6" d="M64.27,314.74a4.63,4.63,0,1,0-4.63-4.63A4.64,4.64,0,0,0,64.27,314.74Z"/>
            </g>
            <g>
              <path class="cls-15" d="M103.18,386a1.4,1.4,0,1,1,0-2.8H245.8a1.4,1.4,0,1,1,0,2.8Z"/>
              <path class="cls-15" d="M103.18,403.39a1.41,1.41,0,0,1,0-2.81H245.8a1.41,1.41,0,1,1,0,2.81Z"/>
              <path class="cls-15" d="M103.18,420.8a1.4,1.4,0,1,1,0-2.8H245.8a1.4,1.4,0,1,1,0,2.8Z"/>
              <path class="cls-15" d="M103.18,438.21a1.4,1.4,0,0,1,0-2.8h95.76a1.4,1.4,0,1,1,0,2.8Z"/>
              <path class="cls-15" d="M103.18,368.56a1.4,1.4,0,1,1,0-2.8H245.8a1.4,1.4,0,1,1,0,2.8Z"/>
            </g>
            <rect class="cls-16" x="18.89" y="356.5" width="70.39" height="54.56" rx="5.74"/>
            <rect class="cls-16" x="18.89" y="421.43" width="70.39" height="24.82" rx="4.82"/>
          </g>
          <rect class="cls-17" x="209.63" y="138.85" width="57.11" height="57.11" rx="9.56"/>
          <rect class="cls-17" x="209.63" y="213.05" width="57.11" height="57.11" rx="9.56"/>
          <g>
            <rect class="cls-17" x="274.01" y="143.35" width="84.5" height="3.27"/>
            <rect class="cls-17" x="274.01" y="179.21" width="12.39" height="3.27"/>
            <rect class="cls-17" x="274.01" y="187.13" width="12.39" height="3.27"/>
            <rect class="cls-17" x="292.61" y="179.21" width="12.39" height="3.27"/>
            <rect class="cls-17" x="292.61" y="187.13" width="12.39" height="3.27"/>
            <rect class="cls-17" x="274.01" y="149.99" width="53.14" height="3.27"/>
            <rect class="cls-17" x="274.01" y="157.06" width="40.61" height="3.27"/>
          </g>
          <g>
            <rect class="cls-17" x="274.01" y="219.73" width="84.5" height="3.27"/>
            <rect class="cls-17" x="274.01" y="255.6" width="12.39" height="3.27"/>
            <rect class="cls-17" x="274.01" y="263.51" width="12.39" height="3.27"/>
            <rect class="cls-17" x="292.61" y="255.6" width="12.39" height="3.27"/>
            <rect class="cls-17" x="292.61" y="263.51" width="12.39" height="3.27"/>
            <rect class="cls-17" x="274.01" y="226.38" width="53.14" height="3.27"/>
            <rect class="cls-17" x="274.01" y="233.44" width="40.61" height="3.27"/>
          </g>
          <g>
            <rect class="cls-17" x="274.01" y="321.32" width="84.5" height="3.27"/>
            <rect class="cls-17" x="274.01" y="357.19" width="12.39" height="3.27"/>
            <rect class="cls-17" x="274.01" y="365.1" width="12.39" height="3.27"/>
            <rect class="cls-17" x="292.61" y="357.19" width="12.39" height="3.27"/>
            <rect class="cls-17" x="292.61" y="365.1" width="12.39" height="3.27"/>
            <rect class="cls-17" x="274.01" y="327.97" width="53.14" height="3.27"/>
            <rect class="cls-17" x="274.01" y="335.04" width="40.61" height="3.27"/>
          </g>
          <g>
            <path class="cls-3" d="M93.43,176a7.66,7.66,0,0,0-2.25,5.43V229a7.68,7.68,0,0,0,7.67,7.67h76.71V173.71H98.85A7.66,7.66,0,0,0,93.43,176Z"/>
            <path class="cls-18" d="M169.25,180a3.57,3.57,0,0,0-1.05,2.55v12.34a3.59,3.59,0,0,0,1.05,2.56,3.64,3.64,0,0,0,2.56,1.06h3.75v-2.41h-3.75a1.22,1.22,0,0,1-.86-.36,1.19,1.19,0,0,1-.35-.85v-5h5V187.5h-5v-5a1.21,1.21,0,0,1,1.21-1.2h3.75v-2.41h-3.75A3.58,3.58,0,0,0,169.25,180Z"/>
            <rect class="cls-18" x="91.18" y="207.27" width="84.38" height="13.55"/>
            <rect class="cls-16" x="97.04" y="192.99" width="64.63" height="4.29"/>
            <rect class="cls-16" x="97.05" y="186.56" width="21.27" height="4.29"/>
            <rect class="cls-16" x="121.31" y="186.56" width="8.86" height="4.29"/>
            <rect class="cls-16" x="126.93" y="180.12" width="8.85" height="4.29"/>
            <rect class="cls-16" x="152.82" y="186.56" width="8.86" height="4.29"/>
            <rect class="cls-16" x="97.04" y="225.5" width="8.86" height="4.29"/>
            <rect class="cls-16" x="141.19" y="225.5" width="4.43" height="4.29"/>
            <rect class="cls-16" x="147.7" y="225.5" width="27.86" height="4.29"/>
            <rect class="cls-16" x="109.47" y="225.5" width="27.72" height="4.29"/>
            <rect class="cls-16" x="142.58" y="180.12" width="19.09" height="4.29"/>
            <rect class="cls-16" x="97.05" y="180.12" width="19.09" height="4.29"/>
          </g>
          <g>
            <g>
              <g>
                <polygon class="cls-19" points="371.63 369 372.68 376.81 377.19 376.2 375.59 364.29 371.63 369"/>
                <polygon class="cls-19" points="394.45 361.75 396.05 373.66 400.56 373.06 399.51 365.25 394.45 361.75"/>
                <polygon class="cls-9" points="375.59 364.29 371.63 369 399.51 365.25 394.45 361.75 375.59 364.29"/>
                <polygon class="cls-9" points="363.06 376.31 368.24 451.26 424.52 443.69 409.71 370.03 363.06 376.31"/>
              </g>
              <g>
                <polygon class="cls-19" points="399.31 383.36 400.86 394.87 405.78 394.2 403.42 376.63 399.31 383.36"/>
                <polygon class="cls-19" points="424 373.86 426.36 391.44 431.29 390.77 429.74 379.26 424 373.86"/>
                <polygon class="cls-19" points="403.42 376.68 399.31 383.4 429.74 379.31 424 373.91 403.42 376.68"/>
                <polygon class="cls-19" points="390.27 393.64 392.24 448.03 453.64 439.77 441.17 386.8 390.27 393.64"/>
              </g>
              <g>
                <polygon class="cls-20" points="434.84 397.22 434.3 396.88 433.86 397.35 433.31 397.01 432.88 397.48 432.33 397.14 431.89 397.61 431.35 397.27 430.91 397.75 430.37 397.4 429.93 397.88 429.38 397.54 428.95 398.01 428.4 397.67 427.97 398.14 427.42 397.8 426.98 398.27 426.44 397.93 426 398.41 425.46 398.06 425.02 398.54 424.47 398.2 424.04 398.67 423.49 398.33 423.06 398.8 422.51 398.46 422.07 398.93 421.53 398.59 421.09 399.07 420.54 398.73 420.11 399.2 419.56 398.86 419.12 399.33 418.58 398.99 418.14 399.46 417.6 399.12 417.16 399.6 416.61 399.25 416.18 399.73 415.63 399.39 415.19 399.86 414.64 399.52 414.21 399.99 413.66 399.65 413.23 400.13 412.68 399.78 412.24 400.26 411.69 399.92 411.26 400.39 410.71 400.05 410.27 400.52 409.73 400.18 409.29 400.65 408.74 400.31 408.31 400.79 407.76 400.44 407.32 400.92 406.78 400.58 406.34 401.05 405.79 400.71 405.36 401.18 404.81 400.84 404.37 401.31 403.82 400.97 403.39 401.45 402.84 401.11 402.4 401.58 402.41 401.64 408.36 445.86 440.8 441.5 434.85 397.28 434.84 397.22"/>
                <polygon class="cls-21" points="440.8 441.5 453.64 439.77 446.71 436.83 440.8 441.5"/>
                <polygon class="cls-22" points="447.7 395.57 447.7 395.55 447.68 395.55 447.14 395.15 446.74 395.68 446.69 395.69 446.16 395.28 445.75 395.81 445.71 395.82 445.18 395.41 444.77 395.94 444.73 395.95 444.19 395.54 443.79 396.08 443.74 396.08 443.21 395.68 442.81 396.21 442.79 396.23 442.76 396.21 442.23 395.81 441.82 396.34 441.8 396.36 441.78 396.35 441.25 395.94 441.21 395.98 441.27 396.41 446.71 436.83 453.64 439.77 447.7 395.57 447.7 395.57"/>
                <polygon class="cls-21" points="441.21 395.98 441.21 395.98 440.81 396.41 440.27 396.07 439.83 396.55 439.28 396.2 438.85 396.68 438.3 396.34 437.87 396.81 437.32 396.47 436.88 396.94 436.34 396.6 435.9 397.07 435.36 396.73 434.85 397.28 440.8 441.5 446.71 436.83 441.27 396.41 441.21 395.98"/>
              </g>
              <g>
                <polygon class="cls-22" points="340.66 474.97 340.66 479.51 370.93 474.57 440.73 479.51 440.73 474.97 370.93 470.03 340.66 474.97"/>
                <path class="cls-23" d="M440.79,469.15a7.65,7.65,0,1,0,7.72,7.58A7.65,7.65,0,0,0,440.79,469.15Z"/>
                <path class="cls-23" d="M340.59,469.15a7.65,7.65,0,1,0,7.72,7.58A7.65,7.65,0,0,0,340.59,469.15Z"/>
                <path class="cls-24" d="M449.92,398.44,347,387.16l-4.52-13.11-4.74,1.61,30.83,90.88a4.69,4.69,0,1,0,6.59,4.25c0-.53-2-6.69-5-15.64,5.95-.76,82.63-10.56,82.64-10.67a5.66,5.66,0,0,0,2.93-4.88l.43-34.11A7,7,0,0,0,449.92,398.44ZM436,400.66l5.78,18.55-10.49.1-6-19.71Zm-15-1.49,6.14,20.18-10.5.1L410,398.08Zm-15.35-1.52,6.8,21.84-10.49.1-7.17-23Zm-15.19-1.51,7.32,23.49-10.5.1-7.68-24.66Zm-15.19-1.49,7.83,25.12-10.5.1-8.19-26.3ZM348.62,392l11.45,1.13,8.34,26.76-10.19.09C354.78,410,351.38,400.05,348.62,392Zm20.21,59.26c-2.68-8-5.95-17.63-9.27-27.35l10.07-.1,8.18,26.25Zm13-1.74-8-25.75,10.49-.1,7.63,24.5ZM396,447.65l-7.48-24,10.5-.1,7.09,22.75Zm14.14-1.89-6.94-22.25,10.5-.1,6.54,21Zm14.13-1.89-6.39-20.5,10.48-.1,5.86,19.27Zm14-1.87-5.71-18.77,10.53-.1,5.45,17.5Zm13.86-3.87a2.7,2.7,0,0,1-.05.41l-4.81-15.45,5,0Zm.21-19-6.3.06-5.63-18.07c5.29.53,8.54.86,8.61.88,2.9.92,3.45,5.16,3.41,8.29Z"/>
                <path class="cls-23" d="M341.75,372.39h0l-16,.15a2.86,2.86,0,0,0-2,4.91,2.9,2.9,0,0,0,2,.82l16-.15a2.87,2.87,0,0,0,0-5.73Z"/>
              </g>
            </g>
            <path class="cls-16" d="M333.34,410.84A12.2,12.2,0,1,0,345.53,423,12.19,12.19,0,0,0,333.34,410.84Z"/>
            <path class="cls-21" d="M338.74,418a1,1,0,0,0-1.34.17l-5.08,6.52a.91.91,0,0,1-1.48-.06l-1.5-2.32a1,1,0,0,0-.68-.42h-.12a.91.91,0,0,0-.64.25,1,1,0,0,0-.17,1.24l3,4.46.76.42a1,1,0,0,0,.78-.36l6.68-8.56a1,1,0,0,0-.17-1.34Z"/>
          </g>
          <g>
            <g>
              <path class="cls-25" d="M336.55,367.79a9.32,9.32,0,0,1-2.79-.05c1,.34.69.91,1.66,1.41.43.08,2.25-.58,2.19-1C337.57,367.45,337.05,367.69,336.55,367.79Z"/>
              <path class="cls-25" d="M333,367.47a22.64,22.64,0,0,0-2.77,3.77c4.32,2.35,10.57,4.09,10.08,2,0-.15,1.43.81,1.57-.35.07-.61.45-.6.76-1s.26-1.2-.46-1.82S334,367.81,333,367.47Z"/>
              <path class="cls-25" d="M299.54,320.13c-.34-.86-6.53,2-7.94,3.26-3.24,2.84,2.86,24.36,7.64,31.11,1.81,2.56,9.43,3.87,6.48-5.55C303.31,341.28,301.43,324.88,299.54,320.13Z"/>
              <path class="cls-25" d="M303.43,349.3c-1.67-.46-4.27-.05-4.86,3.42-.64,3.78,23.71,14.63,32.34,18.84a18.47,18.47,0,0,1,2.43-4c-5.29-2.46-24.36-14.77-28.95-17.86A3.42,3.42,0,0,0,303.43,349.3Z"/>
              <path class="cls-26" d="M300.55,319.83c-3.24-3.74-10-1.32-11.15,3.94-1.18,5.59,4.63,25.08,8.33,30.5,3.49,5.27,23.82,13.69,31.16,17.4a4.64,4.64,0,0,1,.86-3.25,6.9,6.9,0,0,1,2.56-2.61c-7.08-5.43-24.13-15.84-25.91-17.33C306.29,347.89,302.25,321.79,300.55,319.83Z"/>
            </g>
            <path class="cls-27" d="M298.19,303.27c-1.68-2.42-6.1,2.57-6.13,2.67-.68,2.34-.76,6.61-1.23,9.73-.11.71,9.28,3.32,8.62,1.69C297.62,312.82,299.31,306.26,298.19,303.27Z"/>
            <path class="cls-23" d="M258.07,476.69c-.08-1-4-3.26-4.9-2.52-.48.38-1.71.78-1.61,2.1s1.44,1.24,2.43,3.82a6.4,6.4,0,0,0,2.59,3.63c1.48,1.06,5.55.84,6.3.09C264.36,482.33,258.37,480.69,258.07,476.69Z"/>
            <path class="cls-25" d="M253.17,474.17a3.58,3.58,0,0,0,1.92,2.46c2.74,1.23,3,.06,3,.06a6.82,6.82,0,0,1,.49-2.11l-4.19-2A3.83,3.83,0,0,1,253.17,474.17Z"/>
            <path class="cls-25" d="M271.66,413.58c.17,4.93-4.35,9-17.29,59a9,9,0,0,0,4,2.68c7.08-21,26.53-46.18,28-60.95,0,0,4.58-21.35,6.28-37L271.08,379C271.64,392.9,271.3,403.14,271.66,413.58Z"/>
            <path class="cls-25" d="M291.52,420.65c-1.62,17.29,5.11,57.9,5.11,57.9a5.37,5.37,0,0,0,4.2-.87s1-30,3.42-58.16c.87-10.22,3-16.35,4.68-32.15l-22.49-6.76C287.36,407.53,292.58,409.44,291.52,420.65Z"/>
            <path class="cls-25" d="M284.14,305.13c-.58,1.88-.56,9.36-1.44,10.64,1.95,4.6,9.39,4.75,10,2.07-2.26-2.36-.53-7.41.26-8.77C291.09,309.31,284.75,305.6,284.14,305.13Z"/>
            <path class="cls-28" d="M306.77,335.2c-.6-4.32-4.93-7-7.29-14.58-1-3-6.81-2.78-6.81-2.78s0,.78-1.7,1.32c-2.73.86-8.27-3.39-8.27-3.39-4.7,1.78-10,4.84-10.15,11.14-.11,5.54,2.51,19.24.81,30.57-2.12,14.17-8.66,31.12-10.62,49.74,18.21,8.27,43.18,2.93,51.51-1.68-3.36-18.79-10.83-30.71-11.92-61.72C302.26,342,307.45,340.13,306.77,335.2Z"/>
            <path class="cls-25" d="M291.64,295.8c-3.63.16-6.95,3.51-6.79,7.11,0,0,.68,4.06.68,4.06.12,2.71,4.5,6.79,6.84,6.18,5.53-1.44,6.26-11.73,6-12.88C297.71,297.07,295,295.64,291.64,295.8Z"/>
            <path class="cls-27" d="M296.8,293a5.38,5.38,0,0,0-3.48-.56c-2.23-5-10.72-3.64-14.54.26s-7.19,12-2.53,22.79c1.5,3.48,10.28,6.24,9.68,3.94-1.18-4.48-1.06-17.73,2.42-20.85a8.66,8.66,0,0,1,7.46-1.95s3,2.52,1.71,10.11C300.58,304,300.75,295.09,296.8,293Z"/>
            <path class="cls-25" d="M285.31,301.82c-.92.18-1.58,1.88-1,3.07a2.63,2.63,0,0,0,1.93,1.72,43.38,43.38,0,0,0,.57-4.4A1.65,1.65,0,0,0,285.31,301.82Z"/>
            <path class="cls-23" d="M251.55,476.06s.54,5.12.73,5.45c.05.09.38.07.39,0,.07-.65-.34-5.48-.34-5.48Z"/>
            <path class="cls-23" d="M301.22,476.39c-.4-.92-4.87-1.62-5.47-.6-.31.53-1.37,1.22-1.37,2.54,0,2.05,2.08,1.22,3.54,2.76.78.81,3,2.74,4.89,2.74s4.61-.19,5-1.16C308.7,480.76,303.23,480.9,301.22,476.39Z"/>
            <path class="cls-25" d="M300.9,473.87l-4.51-.32a11.25,11.25,0,0,1-.64,2.24,28.54,28.54,0,0,0,4.39,1.59c1.73.12,1.28-.68,1.08-1A3.42,3.42,0,0,1,300.9,473.87Z"/>
            <path class="cls-23" d="M294.73,479.41a17,17,0,0,1,1.18,4.35c0,.09.36.09.39,0a47.47,47.47,0,0,0-.79-5.49Z"/>
            <g>
              <path class="cls-25" d="M318.85,369.76a9.31,9.31,0,0,1-2.79,0c1,.34.68.9,1.66,1.41.43.08,2.24-.59,2.18-1C319.86,369.42,319.35,369.67,318.85,369.76Z"/>
              <path class="cls-25" d="M315.32,369.44a23.08,23.08,0,0,0-2.77,3.77c4.32,2.35,10.56,4.09,10.08,2,0-.15,1.43.81,1.56-.35.08-.61.45-.59.77-1s.25-1.21-.46-1.83S316.3,369.78,315.32,369.44Z"/>
              <path class="cls-25" d="M281.84,322.1c-.34-.86-6.53,2-7.94,3.26-3.24,2.84,2.85,24.37,7.63,31.12,1.82,2.56,9.44,3.86,6.49-5.55C285.61,343.25,283.72,326.86,281.84,322.1Z"/>
              <path class="cls-25" d="M285.73,351.27c-1.68-.46-4.27,0-4.86,3.42-.65,3.78,23.71,14.63,32.33,18.85a18.26,18.26,0,0,1,2.43-4c-5.29-2.45-24.35-14.77-28.94-17.85A3.42,3.42,0,0,0,285.73,351.27Z"/>
              <path class="cls-26" d="M282.84,321.8c-3.23-3.74-10-1.32-11.15,3.94-1.18,5.59,4.64,25.09,8.33,30.5,3.49,5.27,23.83,13.69,31.17,17.41a4.66,4.66,0,0,1,.86-3.26,6.9,6.9,0,0,1,2.56-2.61c-7.08-5.42-24.13-15.84-25.92-17.32C288.59,349.86,284.55,323.77,282.84,321.8Z"/>
            </g>
          </g>
          <g>
            <path class="cls-9" d="M494.67,83a1.53,1.53,0,0,0-.23-2.38l-.07,0a1.54,1.54,0,0,1-.44-2.14l0,0a1.53,1.53,0,0,0-.71-2.28l-.09,0a1.53,1.53,0,0,1-.86-2v0a1.54,1.54,0,0,0-1.18-2.09H491a1.53,1.53,0,0,1-1.26-1.77v0a1.54,1.54,0,0,0-1.59-1.79h-.09a1.53,1.53,0,0,1-1.6-1.47v0a1.53,1.53,0,0,0-1.92-1.42l-.09,0a1.53,1.53,0,0,1-1.88-1.1v0a1.53,1.53,0,0,0-2.17-1l-.08,0a1.54,1.54,0,0,1-2.07-.7v0a1.54,1.54,0,0,0-2.34-.52l-.07.06a1.53,1.53,0,0,1-2.16-.25l0,0a1.54,1.54,0,0,0-2.4,0l0,.07a1.54,1.54,0,0,1-2.17.21l0,0a1.53,1.53,0,0,0-2.34.48l0,.08a1.53,1.53,0,0,1-2.08.65l0,0a1.54,1.54,0,0,0-2.2,1l0,.08a1.53,1.53,0,0,1-1.9,1.07h0a1.54,1.54,0,0,0-1.95,1.39v.09a1.52,1.52,0,0,1-1.63,1.44h0a1.53,1.53,0,0,0-1.62,1.76v.09a1.53,1.53,0,0,1-1.3,1.75h0A1.54,1.54,0,0,0,452.61,74l0,.08a1.53,1.53,0,0,1-.91,2h0a1.54,1.54,0,0,0-.76,2.27l.05.08a1.53,1.53,0,0,1-.48,2.12l0,0a1.54,1.54,0,0,0-.27,2.38l.06.06a1.54,1.54,0,0,1,0,2.18l0,0a1.53,1.53,0,0,0,.23,2.38l.08,0a1.53,1.53,0,0,1,.43,2.13l0,0a1.52,1.52,0,0,0,.72,2.28l.08,0a1.53,1.53,0,0,1,.87,2l0,0a1.53,1.53,0,0,0,1.18,2.08h.09A1.53,1.53,0,0,1,455.13,98v0a1.54,1.54,0,0,0,1.58,1.8h.09a1.53,1.53,0,0,1,1.6,1.48v0a1.53,1.53,0,0,0,1.92,1.43l.08,0a1.54,1.54,0,0,1,1.88,1.11v0a1.53,1.53,0,0,0,2.18,1l.07,0a1.53,1.53,0,0,1,2.07.69l0,0a1.52,1.52,0,0,0,2.33.52l.07,0a1.53,1.53,0,0,1,2.17.24l0,0a1.54,1.54,0,0,0,2.39,0l.06-.07a1.52,1.52,0,0,1,2.16-.21l0,0a1.54,1.54,0,0,0,2.35-.47l0-.08a1.54,1.54,0,0,1,2.08-.66l0,0a1.53,1.53,0,0,0,2.19-1l0-.09a1.54,1.54,0,0,1,1.9-1.07h0a1.52,1.52,0,0,0,1.94-1.39v-.09a1.54,1.54,0,0,1,1.63-1.44h0a1.52,1.52,0,0,0,1.61-1.76V98a1.54,1.54,0,0,1,1.3-1.75h0a1.53,1.53,0,0,0,1.22-2.06l0-.08a1.54,1.54,0,0,1,.9-2h0a1.54,1.54,0,0,0,.76-2.27l0-.07a1.54,1.54,0,0,1,.47-2.13l0,0a1.52,1.52,0,0,0,.27-2.37l-.06-.07a1.54,1.54,0,0,1,0-2.18Z"/>
            <g>
              <path class="cls-16" d="M465.83,74.42c-3.19,0-5.23,2.53-5.23,5.86,0,3.51,2.24,5.63,5.09,5.63,2.7,0,5.17-2,5.17-5.94C470.86,76.78,469.05,74.42,465.83,74.42Zm-.06,9.11c-1.26,0-1.92-1.41-1.92-3.36s.6-3.37,1.89-3.37,1.87,1.47,1.87,3.37C467.61,82.26,467,83.53,465.77,83.53Z"/>
              <path class="cls-16" d="M479.27,82.18c-3.18,0-5.22,2.53-5.22,5.86,0,3.5,2.27,5.63,5.08,5.63s5.17-2,5.17-6C484.3,84.53,482.49,82.18,479.27,82.18Zm0,9.1c-1.27,0-1.93-1.4-1.9-3.36s.58-3.36,1.9-3.36,1.84,1.47,1.84,3.36C481.06,90,480.45,91.28,479.22,91.28Z"/>
              <polygon class="cls-16" points="465.92 93.72 468.24 93.72 478.99 74.42 476.63 74.42 465.92 93.72"/>
            </g>
          </g>
          <g>
            <polygon class="cls-3" points="189.56 74.32 217.26 106.2 248.87 106.2 221.17 74.32 189.56 74.32"/>
            <polygon class="cls-28" points="221.17 74.32 248.87 106.2 280.48 106.2 252.78 74.32 221.17 74.32"/>
            <polygon class="cls-3" points="252.78 74.32 280.48 106.2 312.09 106.2 284.39 74.32 252.78 74.32"/>
            <polygon class="cls-28" points="284.39 74.32 312.09 106.2 343.7 106.2 316 74.32 284.39 74.32"/>
            <polygon class="cls-3" points="316 74.32 343.7 106.2 375.31 106.2 347.62 74.32 316 74.32"/>
            <path class="cls-5" d="M359.51,122.12a15.81,15.81,0,0,0,15.8-15.92H343.7A15.81,15.81,0,0,0,359.51,122.12Z"/>
            <path class="cls-29" d="M327.9,122.12a15.81,15.81,0,0,0,15.8-15.92H312.09A15.81,15.81,0,0,0,327.9,122.12Z"/>
            <polygon class="cls-28" points="347.62 74.32 375.32 106.2 406.93 106.2 379.23 74.32 347.62 74.32"/>
            <path class="cls-29" d="M391.12,122.12a15.8,15.8,0,0,0,15.8-15.92H375.31A15.81,15.81,0,0,0,391.12,122.12Z"/>
            <path class="cls-5" d="M296.26,122.12a15.81,15.81,0,0,0,15.81-15.92H280.45A15.82,15.82,0,0,0,296.26,122.12Z"/>
            <path class="cls-29" d="M264.65,122.12a15.8,15.8,0,0,0,15.8-15.92H248.84A15.81,15.81,0,0,0,264.65,122.12Z"/>
            <path class="cls-5" d="M233,122.12a15.81,15.81,0,0,0,15.8-15.92H217.21A15.81,15.81,0,0,0,233,122.12Z"/>
          </g>
          <g>
            <g>
              <path class="cls-3" d="M459.66,270.79a8,8,0,0,1-8,8H292.14a8,8,0,0,1-8-8V220.63a8,8,0,0,1,8-8H451.7a8,8,0,0,1,8,8Z"/>
              <polygon class="cls-3" points="309.25 292.43 313.81 276.48 300.13 276.48 309.25 292.43"/>
            </g>
            <g>
              <rect class="cls-17" x="297.46" y="229.48" width="33.25" height="4.65"/>
              <rect class="cls-17" x="347.26" y="229.48" width="72.81" height="4.65"/>
              <rect class="cls-17" x="428.58" y="229.48" width="15.13" height="4.65"/>
              <rect class="cls-17" x="297.46" y="239.95" width="146.25" height="3.31"/>
              <rect class="cls-17" x="297.46" y="248.67" width="39.87" height="3.85"/>
              <rect class="cls-17" x="345.37" y="248.67" width="98.34" height="3.85"/>
              <rect class="cls-17" x="297.46" y="258.25" width="39.87" height="3.85"/>
              <rect class="cls-17" x="345.37" y="258.25" width="98.34" height="3.85"/>
            </g>
          </g>
        </g>
      </g>
    </g>
  </g>
</svg>
